<svg width="142" height="142" viewBox="0 0 142 142" fill="none" xmlns="http://www.w3.org/2000/svg">
<path d="M71 133.125C54.5234 133.125 38.7217 126.58 27.071 114.929C15.4203 103.278 8.875 87.4766 8.875 71C8.875 54.5234 15.4203 38.7217 27.071 27.071C38.7217 15.4203 54.5234 8.875 71 8.875C87.4766 8.875 103.278 15.4203 114.929 27.071C126.58 38.7217 133.125 54.5234 133.125 71C133.125 87.4766 126.58 103.278 114.929 114.929C103.278 126.58 87.4766 133.125 71 133.125ZM71 142C89.8304 142 107.89 134.52 121.205 121.205C134.52 107.89 142 89.8304 142 71C142 52.1696 134.52 34.1105 121.205 20.7954C107.89 7.48034 89.8304 0 71 0C52.1696 0 34.1105 7.48034 20.7954 20.7954C7.48034 34.1105 0 52.1696 0 71C0 89.8304 7.48034 107.89 20.7954 121.205C34.1105 134.52 52.1696 142 71 142Z" fill="white"/>
<path d="M55.6551 44.8629C56.381 44.4892 57.1958 44.3229 58.0101 44.3824C58.8243 44.4419 59.6063 44.7249 60.2701 45.2002L91.3326 67.3877C91.9079 67.7982 92.3768 68.3401 92.7003 68.9684C93.0238 69.5967 93.1925 70.2931 93.1925 70.9998C93.1925 71.7065 93.0238 72.403 92.7003 73.0312C92.3768 73.6595 91.9079 74.2015 91.3326 74.6119L60.2701 96.7994C59.6066 97.2743 58.8249 97.5571 58.0111 97.6166C57.1973 97.6761 56.3828 97.5101 55.6572 97.1367C54.9317 96.7634 54.3231 96.1972 53.8984 95.5005C53.4737 94.8037 53.2493 94.0033 53.25 93.1873V48.8123C53.2491 47.9965 53.4732 47.1963 53.8975 46.4996C54.3218 45.8029 54.9299 45.2366 55.6551 44.8629Z" fill="white"/>
</svg>
